<svg height="464pt" viewBox="0 -16 464.00003 464" width="464pt" xmlns="http://www.w3.org/2000/svg"><path d="m464 120c.03125-57.871094-41.265625-107.511719-98.175781-118.007812-56.914063-10.5-113.203125 21.136718-133.824219 75.207031-20.621094-54.070313-76.910156-85.707031-133.824219-75.207031-56.910156 10.496093-98.207031 60.136718-98.175781 118.007812 0 136 165.726562 312 232 312s232-176 232-312zm0 0" fill="#fa507f"/><path d="m176 192c-4.417969 0-8-3.582031-8-8 0-21.679688-10.992188-40-24-40s-24 18.320312-24 40c0 4.417969-3.582031 8-8 8s-8-3.582031-8-8c0-31.398438 17.601562-56 40-56s40 24.601562 40 56c0 4.417969-3.582031 8-8 8zm0 0" fill="#603913"/><path d="m352 192c-4.417969 0-8-3.582031-8-8 0-21.679688-10.992188-40-24-40s-24 18.320312-24 40c0 4.417969-3.582031 8-8 8s-8-3.582031-8-8c0-31.398438 17.601562-56 40-56s40 24.601562 40 56c0 4.417969-3.582031 8-8 8zm0 0" fill="#603913"/><path d="m232 320c-26.910156 0-48-31.625-48-72 0-4.417969 3.582031-8 8-8s8 3.582031 8 8c0 30.351562 14.65625 56 32 56s32-25.648438 32-56c0-4.417969 3.582031-8 8-8s8 3.582031 8 8c0 40.375-21.089844 72-48 72zm0 0" fill="#a21d1f"/></svg>